<?xml version="1.0" encoding="utf-8"?>
<!-- Generator: Adobe Illustrator 22.0.0, SVG Export Plug-In . SVG Version: 6.00 Build 0)  -->
<svg version="1.1" id="Layer_1" xmlns="http://www.w3.org/2000/svg" xmlns:xlink="http://www.w3.org/1999/xlink" x="0px" y="0px"
	 viewBox="0 0 1080 1080" style="enable-background:new 0 0 1080 1080;" xml:space="preserve">
<style type="text/css">
	.st0{fill:#CCCCCC;}
	.st1{display:none;}
	.st2{display:inline;fill:#4D4D4D;}
	.st3{display:inline;}
	.st4{fill:#4D4D4D;}
</style>
<g>
	<rect x="0.5" y="0.5" class="st0" width="1079" height="1079"/>
	<path d="M1079,1v1078H1V1H1079 M1080,0H0v1080h1080V0L1080,0z"/>
</g>
<g class="st1">
	<circle class="st2" cx="152.5" cy="541.5" r="100.5"/>
	<path class="st3" d="M152.5,441.5c55.1,0,100,44.9,100,100s-44.9,100-100,100s-100-44.9-100-100S97.4,441.5,152.5,441.5
		 M152.5,440.5c-55.8,0-101,45.2-101,101s45.2,101,101,101s101-45.2,101-101S208.3,440.5,152.5,440.5L152.5,440.5z"/>
</g>
<g>
	<circle class="st4" cx="155" cy="931" r="100.5"/>
	<path d="M155,831c55.1,0,100,44.9,100,100s-44.9,100-100,100S55,986.1,55,931S99.9,831,155,831 M155,830c-55.8,0-101,45.2-101,101
		s45.2,101,101,101s101-45.2,101-101S210.8,830,155,830L155,830z"/>
</g>
<g>
	<circle class="st4" cx="928.5" cy="155.5" r="100.5"/>
	<path d="M928.5,55.5c55.1,0,100,44.9,100,100s-44.9,100-100,100s-100-44.9-100-100S873.4,55.5,928.5,55.5 M928.5,54.5
		c-55.8,0-101,45.2-101,101s45.2,101,101,101s101-45.2,101-101S984.3,54.5,928.5,54.5L928.5,54.5z"/>
</g>
</svg>
